<svg xmlns="http://www.w3.org/2000/svg" viewBox="0 0 241.97 241.97"><defs><style>.cls-1{fill:#e6e7e8;stroke:#6d6e71;stroke-width:2.83px;}.cls-1,.cls-3{stroke-miterlimit:10;}.cls-2{fill:#6d6e71;}.cls-3{fill:#f1f2f2;stroke:#939598;}</style></defs><g id="Layer_2" data-name="Layer 2"><g id="Layer_1-2" data-name="Layer 1"><circle class="cls-1" cx="120.98" cy="120.98" r="119.57"/><path class="cls-2" d="M39.31,32.47c-.79,1.5-1.54,3-2.27,4.58-34.7,73.76-2.79,161.82,71.29,196.67a148.28,148.28,0,0,0,17.79,7A120.58,120.58,0,0,1,71,229.24C10.57,200.82-15.44,129.05,12.86,68.9A119.46,119.46,0,0,1,39.31,32.47Z"/><circle class="cls-3" cx="141.54" cy="38.9" r="15.42"/><circle class="cls-3" cx="171.41" cy="124.77" r="37.64"/><circle class="cls-3" cx="82.41" cy="98.73" r="18.64"/><circle class="cls-3" cx="73.81" cy="209.53" r="13.16"/><circle class="cls-3" cx="53.63" cy="166.64" r="23.95"/><circle class="cls-3" cx="149.18" cy="206.01" r="15.42"/></g></g></svg>